<svg xmlns="http://www.w3.org/2000/svg" xmlns:xlink="http://www.w3.org/1999/xlink" width="500" zoomAndPan="magnify" viewBox="0 0 375 149.999998" height="200" preserveAspectRatio="xMidYMid meet" version="1.0"><defs><g/></defs><path stroke-linecap="butt" transform="matrix(0.75, 0, 0, 0.75, 0.000003125, 101.347892)" fill="none" stroke-linejoin="miter" d="M -0.00000416667 6.999686 L 241.46876 6.999686 " stroke="#ffffff" stroke-width="14" stroke-opacity="1" stroke-miterlimit="4"/><g fill="#ffffff" fill-opacity="1"><g transform="translate(0.000003125, 79.858852)"><g><path d="M 11.671875 -23.8125 L 11.671875 -17.109375 L 25.125 -17.109375 L 25.125 -10.453125 L 11.671875 -10.453125 L 11.671875 0 L 3.046875 0 L 3.046875 -30.46875 L 26.953125 -30.46875 L 26.953125 -23.8125 Z M 11.671875 -23.8125 "/></g></g></g><g fill="#ffffff" fill-opacity="1"><g transform="translate(31.734489, 79.858852)"><g><path d="M 3.046875 -30.46875 L 11.671875 -30.46875 L 11.671875 0 L 3.046875 0 Z M 3.046875 -30.46875 "/></g></g></g><g fill="#ffffff" fill-opacity="1"><g transform="translate(50.279085, 79.858852)"><g><path d="M 3.046875 -30.46875 L 11.671875 -30.46875 L 11.671875 -6.828125 L 26.203125 -6.828125 L 26.203125 0 L 3.046875 0 Z M 3.046875 -30.46875 "/></g></g></g><g fill="#ffffff" fill-opacity="1"><g transform="translate(80.620586, 79.858852)"><g><path d="M 30.5625 0 L 30.46875 -16.15625 L 22.640625 -3 L 18.8125 -3 L 11.015625 -15.71875 L 11.015625 0 L 3.046875 0 L 3.046875 -30.46875 L 10.140625 -30.46875 L 20.84375 -12.890625 L 31.296875 -30.46875 L 38.390625 -30.46875 L 38.484375 0 Z M 30.5625 0 "/></g></g></g><g fill="#ffffff" fill-opacity="1"><g transform="translate(125.936743, 79.858852)"><g><path d="M 9.703125 0.609375 C 7.472656 0.609375 5.441406 0.222656 3.609375 -0.546875 C 1.785156 -1.316406 0.289062 -2.425781 -0.875 -3.875 L 3.828125 -9.453125 C 5.453125 -7.328125 7.207031 -6.265625 9.09375 -6.265625 C 10.34375 -6.265625 11.289062 -6.640625 11.9375 -7.390625 C 12.59375 -8.148438 12.921875 -9.253906 12.921875 -10.703125 L 12.921875 -23.8125 L 2.390625 -23.8125 L 2.390625 -30.46875 L 21.453125 -30.46875 L 21.453125 -11.234375 C 21.453125 -7.285156 20.457031 -4.320312 18.46875 -2.34375 C 16.488281 -0.375 13.566406 0.609375 9.703125 0.609375 Z M 9.703125 0.609375 "/></g></g></g><g fill="#ffffff" fill-opacity="1"><g transform="translate(153.971098, 79.858852)"><g><path d="M 18.40625 0.609375 C 15.1875 0.609375 12.289062 -0.0703125 9.71875 -1.4375 C 7.15625 -2.800781 5.140625 -4.6875 3.671875 -7.09375 C 2.210938 -9.5 1.484375 -12.210938 1.484375 -15.234375 C 1.484375 -18.253906 2.210938 -20.96875 3.671875 -23.375 C 5.140625 -25.78125 7.15625 -27.664062 9.71875 -29.03125 C 12.289062 -30.394531 15.1875 -31.078125 18.40625 -31.078125 C 21.632812 -31.078125 24.53125 -30.394531 27.09375 -29.03125 C 29.664062 -27.664062 31.679688 -25.78125 33.140625 -23.375 C 34.609375 -20.96875 35.34375 -18.253906 35.34375 -15.234375 C 35.34375 -12.210938 34.609375 -9.5 33.140625 -7.09375 C 31.679688 -4.6875 29.664062 -2.800781 27.09375 -1.4375 C 24.53125 -0.0703125 21.632812 0.609375 18.40625 0.609375 Z M 18.40625 -6.53125 C 19.945312 -6.53125 21.34375 -6.890625 22.59375 -7.609375 C 23.84375 -8.335938 24.828125 -9.363281 25.546875 -10.6875 C 26.273438 -12.007812 26.640625 -13.523438 26.640625 -15.234375 C 26.640625 -16.941406 26.273438 -18.457031 25.546875 -19.78125 C 24.828125 -21.101562 23.84375 -22.125 22.59375 -22.84375 C 21.34375 -23.570312 19.945312 -23.9375 18.40625 -23.9375 C 16.875 -23.9375 15.484375 -23.570312 14.234375 -22.84375 C 12.984375 -22.125 11.992188 -21.101562 11.265625 -19.78125 C 10.546875 -18.457031 10.1875 -16.941406 10.1875 -15.234375 C 10.1875 -13.523438 10.546875 -12.007812 11.265625 -10.6875 C 11.992188 -9.363281 12.984375 -8.335938 14.234375 -7.609375 C 15.484375 -6.890625 16.875 -6.53125 18.40625 -6.53125 Z M 18.40625 -6.53125 "/></g></g></g><g fill="#ffffff" fill-opacity="1"><g transform="translate(194.585911, 79.858852)"><g><path d="M 17.109375 0.609375 C 12.578125 0.609375 9.054688 -0.625 6.546875 -3.09375 C 4.035156 -5.5625 2.78125 -9.054688 2.78125 -13.578125 L 2.78125 -30.46875 L 11.40625 -30.46875 L 11.40625 -13.84375 C 11.40625 -8.96875 13.332031 -6.53125 17.1875 -6.53125 C 21.019531 -6.53125 22.9375 -8.96875 22.9375 -13.84375 L 22.9375 -30.46875 L 31.421875 -30.46875 L 31.421875 -13.578125 C 31.421875 -9.054688 30.164062 -5.5625 27.65625 -3.09375 C 25.15625 -0.625 21.640625 0.609375 17.109375 0.609375 Z M 17.109375 0.609375 "/></g></g></g><g fill="#ffffff" fill-opacity="1"><g transform="translate(232.58885, 79.858852)"><g><path d="M 16.375 -8.09375 L 11.671875 -8.09375 L 11.671875 0 L 3.046875 0 L 3.046875 -30.46875 L 16.984375 -30.46875 C 19.734375 -30.46875 22.125 -30.007812 24.15625 -29.09375 C 26.1875 -28.1875 27.753906 -26.882812 28.859375 -25.1875 C 29.960938 -23.488281 30.515625 -21.492188 30.515625 -19.203125 C 30.515625 -16.992188 30 -15.066406 28.96875 -13.421875 C 27.9375 -11.785156 26.460938 -10.503906 24.546875 -9.578125 L 31.125 0 L 21.890625 0 Z M 21.8125 -19.203125 C 21.8125 -20.617188 21.359375 -21.71875 20.453125 -22.5 C 19.554688 -23.289062 18.222656 -23.6875 16.453125 -23.6875 L 11.671875 -23.6875 L 11.671875 -14.75 L 16.453125 -14.75 C 18.222656 -14.75 19.554688 -15.132812 20.453125 -15.90625 C 21.359375 -16.675781 21.8125 -17.773438 21.8125 -19.203125 Z M 21.8125 -19.203125 "/></g></g></g><g fill="#ffffff" fill-opacity="1"><g transform="translate(268.589386, 79.858852)"><g><path d="M 32.03125 -30.46875 L 32.03125 0 L 24.9375 0 L 11.5 -16.234375 L 11.5 0 L 3.046875 0 L 3.046875 -30.46875 L 10.140625 -30.46875 L 23.59375 -14.234375 L 23.59375 -30.46875 Z M 32.03125 -30.46875 "/></g></g></g><g fill="#ffffff" fill-opacity="1"><g transform="translate(307.462967, 79.858852)"><g><path d="M 27.515625 -6.65625 L 27.515625 0 L 3.046875 0 L 3.046875 -30.46875 L 26.953125 -30.46875 L 26.953125 -23.8125 L 11.578125 -23.8125 L 11.578125 -18.671875 L 25.125 -18.671875 L 25.125 -12.234375 L 11.578125 -12.234375 L 11.578125 -6.65625 Z M 27.515625 -6.65625 "/></g></g></g><g fill="#ffffff" fill-opacity="1"><g transform="translate(340.503383, 79.858852)"><g><path d="M 19.375 -10.921875 L 19.375 0 L 10.75 0 L 10.75 -11.0625 L -0.875 -30.46875 L 8.234375 -30.46875 L 15.453125 -18.375 L 22.6875 -30.46875 L 31.03125 -30.46875 Z M 19.375 -10.921875 "/></g></g></g><g fill="#ffffff" fill-opacity="1"><g transform="translate(187.499992, 109.825431)"><g><path d="M 9.65625 0 L 9.640625 -6.53125 L 6.40625 -1.09375 L 5.8125 -1.09375 L 2.578125 -6.5 L 2.578125 0 L 1.34375 0 L 1.34375 -8.96875 L 2.390625 -8.96875 L 6.140625 -2.671875 L 9.828125 -8.96875 L 10.875 -8.96875 L 10.890625 0 Z M 9.65625 0 "/></g></g></g><g fill="#ffffff" fill-opacity="1"><g transform="translate(202.91198, 109.825431)"><g><path d="M 5.390625 0.109375 C 4.484375 0.109375 3.664062 -0.0859375 2.9375 -0.484375 C 2.21875 -0.890625 1.648438 -1.441406 1.234375 -2.140625 C 0.816406 -2.835938 0.609375 -3.617188 0.609375 -4.484375 C 0.609375 -5.347656 0.816406 -6.128906 1.234375 -6.828125 C 1.648438 -7.523438 2.21875 -8.070312 2.9375 -8.46875 C 3.664062 -8.875 4.484375 -9.078125 5.390625 -9.078125 C 6.285156 -9.078125 7.097656 -8.875 7.828125 -8.46875 C 8.554688 -8.070312 9.125 -7.523438 9.53125 -6.828125 C 9.9375 -6.140625 10.140625 -5.359375 10.140625 -4.484375 C 10.140625 -3.609375 9.9375 -2.820312 9.53125 -2.125 C 9.125 -1.4375 8.554688 -0.890625 7.828125 -0.484375 C 7.097656 -0.0859375 6.285156 0.109375 5.390625 0.109375 Z M 5.390625 -1.03125 C 6.046875 -1.03125 6.632812 -1.179688 7.15625 -1.484375 C 7.6875 -1.785156 8.101562 -2.195312 8.40625 -2.71875 C 8.707031 -3.25 8.859375 -3.835938 8.859375 -4.484375 C 8.859375 -5.128906 8.707031 -5.710938 8.40625 -6.234375 C 8.101562 -6.765625 7.6875 -7.179688 7.15625 -7.484375 C 6.632812 -7.785156 6.046875 -7.9375 5.390625 -7.9375 C 4.734375 -7.9375 4.140625 -7.785156 3.609375 -7.484375 C 3.078125 -7.179688 2.65625 -6.765625 2.34375 -6.234375 C 2.039062 -5.710938 1.890625 -5.128906 1.890625 -4.484375 C 1.890625 -3.835938 2.039062 -3.25 2.34375 -2.71875 C 2.65625 -2.195312 3.078125 -1.785156 3.609375 -1.484375 C 4.140625 -1.179688 4.734375 -1.03125 5.390625 -1.03125 Z M 5.390625 -1.03125 "/></g></g></g><g fill="#ffffff" fill-opacity="1"><g transform="translate(216.850864, 109.825431)"><g><path d="M 9.140625 -8.96875 L 5.203125 0 L 3.9375 0 L -0.015625 -8.96875 L 1.375 -8.96875 L 4.59375 -1.609375 L 7.859375 -8.96875 Z M 9.140625 -8.96875 "/></g></g></g><g fill="#ffffff" fill-opacity="1"><g transform="translate(229.150121, 109.825431)"><g><path d="M 1.34375 -8.96875 L 2.625 -8.96875 L 2.625 0 L 1.34375 0 Z M 1.34375 -8.96875 "/></g></g></g><g fill="#ffffff" fill-opacity="1"><g transform="translate(236.299927, 109.825431)"><g><path d="M 7.859375 -1.109375 L 7.859375 0 L 1.34375 0 L 1.34375 -8.96875 L 7.671875 -8.96875 L 7.671875 -7.859375 L 2.625 -7.859375 L 2.625 -5.09375 L 7.125 -5.09375 L 7.125 -4.015625 L 2.625 -4.015625 L 2.625 -1.109375 Z M 7.859375 -1.109375 "/></g></g></g><g fill="#ffffff" fill-opacity="1"><g transform="translate(248.061187, 109.825431)"><g><path d="M 1.34375 -8.96875 L 2.625 -8.96875 L 2.625 -1.109375 L 7.484375 -1.109375 L 7.484375 0 L 1.34375 0 Z M 1.34375 -8.96875 "/></g></g></g><g fill="#ffffff" fill-opacity="1"><g transform="translate(258.848915, 109.825431)"><g><path d="M 5.390625 0.109375 C 4.484375 0.109375 3.664062 -0.0859375 2.9375 -0.484375 C 2.21875 -0.890625 1.648438 -1.441406 1.234375 -2.140625 C 0.816406 -2.835938 0.609375 -3.617188 0.609375 -4.484375 C 0.609375 -5.347656 0.816406 -6.128906 1.234375 -6.828125 C 1.648438 -7.523438 2.21875 -8.070312 2.9375 -8.46875 C 3.664062 -8.875 4.484375 -9.078125 5.390625 -9.078125 C 6.285156 -9.078125 7.097656 -8.875 7.828125 -8.46875 C 8.554688 -8.070312 9.125 -7.523438 9.53125 -6.828125 C 9.9375 -6.140625 10.140625 -5.359375 10.140625 -4.484375 C 10.140625 -3.609375 9.9375 -2.820312 9.53125 -2.125 C 9.125 -1.4375 8.554688 -0.890625 7.828125 -0.484375 C 7.097656 -0.0859375 6.285156 0.109375 5.390625 0.109375 Z M 5.390625 -1.03125 C 6.046875 -1.03125 6.632812 -1.179688 7.15625 -1.484375 C 7.6875 -1.785156 8.101562 -2.195312 8.40625 -2.71875 C 8.707031 -3.25 8.859375 -3.835938 8.859375 -4.484375 C 8.859375 -5.128906 8.707031 -5.710938 8.40625 -6.234375 C 8.101562 -6.765625 7.6875 -7.179688 7.15625 -7.484375 C 6.632812 -7.785156 6.046875 -7.9375 5.390625 -7.9375 C 4.734375 -7.9375 4.140625 -7.785156 3.609375 -7.484375 C 3.078125 -7.179688 2.65625 -6.765625 2.34375 -6.234375 C 2.039062 -5.710938 1.890625 -5.128906 1.890625 -4.484375 C 1.890625 -3.835938 2.039062 -3.25 2.34375 -2.71875 C 2.65625 -2.195312 3.078125 -1.785156 3.609375 -1.484375 C 4.140625 -1.179688 4.734375 -1.03125 5.390625 -1.03125 Z M 5.390625 -1.03125 "/></g></g></g><g fill="#ffffff" fill-opacity="1"><g transform="translate(272.787799, 109.825431)"><g><path d="M 7.5625 -4.53125 L 8.796875 -4.53125 L 8.796875 -1.03125 C 8.347656 -0.664062 7.828125 -0.382812 7.234375 -0.1875 C 6.648438 0.0078125 6.035156 0.109375 5.390625 0.109375 C 4.484375 0.109375 3.664062 -0.0859375 2.9375 -0.484375 C 2.21875 -0.890625 1.648438 -1.4375 1.234375 -2.125 C 0.816406 -2.820312 0.609375 -3.609375 0.609375 -4.484375 C 0.609375 -5.359375 0.816406 -6.144531 1.234375 -6.84375 C 1.648438 -7.539062 2.222656 -8.085938 2.953125 -8.484375 C 3.679688 -8.878906 4.503906 -9.078125 5.421875 -9.078125 C 6.140625 -9.078125 6.789062 -8.957031 7.375 -8.71875 C 7.957031 -8.476562 8.453125 -8.132812 8.859375 -7.6875 L 8.078125 -6.890625 C 7.359375 -7.585938 6.488281 -7.9375 5.46875 -7.9375 C 4.789062 -7.9375 4.175781 -7.785156 3.625 -7.484375 C 3.082031 -7.191406 2.65625 -6.78125 2.34375 -6.25 C 2.039062 -5.726562 1.890625 -5.140625 1.890625 -4.484375 C 1.890625 -3.835938 2.039062 -3.25 2.34375 -2.71875 C 2.65625 -2.195312 3.082031 -1.785156 3.625 -1.484375 C 4.175781 -1.179688 4.785156 -1.03125 5.453125 -1.03125 C 6.253906 -1.03125 6.957031 -1.222656 7.5625 -1.609375 Z M 7.5625 -4.53125 "/></g></g></g></svg>